# xmcd
# 
# Track frame offsets:
#     150
#     22950
#     66977
# 
# Disc length: 1132
# 
# Revision: 1
# Processed by: cddbd v1.5.2PL0 Copyright (c) Steve Scherf et al.
# Submitted via: fre:ac v1.0.31
# 
DISCID=1f046a03
DTITLE=access - SCANDALOUS BLUE
DYEAR=1994
DGENRE=JPop
TTITLE0=SCANDALOUS BLUE
TTITLE1=SEQUENCE MEDITATION 〜超電導思考回路 第二楽章 混乱
TTITLE2=DRASTIC MERMAID[INSTRUMENTAL MIX]
EXTD=
EXTT0=
EXTT1=
EXTT2=
PLAYORDER=
